<?xml version="1.0" standalone="no"?>
<!DOCTYPE svg PUBLIC "-//W3C//DTD SVG 20010904//EN"
 "http://www.w3.org/TR/2001/REC-SVG-20010904/DTD/svg10.dtd">
<svg version="1.0" xmlns="http://www.w3.org/2000/svg"
 width="2048.000000pt" height="1593.000000pt" viewBox="0 0 2048.000000 1593.000000"
 preserveAspectRatio="xMidYMid meet">
<metadata>
Created by potrace 1.16, written by Peter Selinger 2001-2019
</metadata>
<g transform="translate(0.000000,1593.000000) scale(0.100000,-0.100000)"
fill="#000000" stroke="none">
<path d="M5590 14773 c-519 -36 -840 -95 -1350 -250 -318 -96 -728 -277 -1049
-463 -215 -124 -525 -349 -676 -489 -289 -269 -439 -442 -624 -719 -92 -136
-132 -216 -158 -312 -17 -62 -18 -317 -18 -5525 l0 -5460 23 -65 c78 -218 247
-333 512 -347 203 -11 399 53 520 169 93 89 395 313 574 427 152 96 491 276
661 349 219 95 529 203 779 271 424 116 884 174 1386 175 438 0 785 -39 1167
-134 400 -99 823 -267 1169 -465 262 -150 449 -279 679 -469 33 -27 89 -63
125 -80 84 -39 199 -43 271 -10 58 27 116 84 143 143 l21 46 3 5600 c1 3719
-1 5618 -8 5655 -14 77 -58 161 -153 293 -103 143 -131 178 -239 297 -282 310
-602 561 -976 763 -299 163 -441 224 -752 328 -475 158 -864 234 -1370 269
-132 9 -549 11 -660 3z"/>
<path d="M14280 14774 c-25 -2 -106 -8 -180 -14 -326 -27 -588 -72 -900 -156
-518 -140 -878 -291 -1290 -543 -391 -238 -761 -582 -1020 -946 -90 -127 -125
-189 -145 -260 -13 -44 -15 -751 -13 -5675 l3 -5625 27 -50 c31 -59 67 -94
128 -126 37 -19 60 -23 130 -23 109 0 169 26 294 128 241 194 376 289 586 412
265 155 544 283 825 379 44 15 89 31 100 36 59 25 253 77 455 123 355 80 897
121 1290 97 584 -35 981 -112 1505 -291 338 -116 520 -198 890 -403 222 -122
581 -377 745 -528 61 -56 201 -129 290 -151 81 -19 299 -16 380 6 196 53 323
183 371 376 12 46 14 924 14 5475 0 5190 -1 5424 -18 5505 -21 101 -62 184
-159 329 -197 295 -356 476 -654 745 -98 89 -289 233 -470 354 -293 198 -764
424 -1125 542 -443 145 -797 222 -1220 266 -143 14 -726 27 -839 18z"/>
</g>
</svg>
