<?xml version="1.0" standalone="no"?>
<!DOCTYPE svg PUBLIC "-//W3C//DTD SVG 20010904//EN"
 "http://www.w3.org/TR/2001/REC-SVG-20010904/DTD/svg10.dtd">
<svg version="1.0" xmlns="http://www.w3.org/2000/svg"
 width="2048.000000pt" height="1935.000000pt" viewBox="0 0 2048.000000 1935.000000"
 preserveAspectRatio="xMidYMid meet">
<metadata>
Created by potrace 1.16, written by Peter Selinger 2001-2019
</metadata>
<g transform="translate(0.000000,1935.000000) scale(0.100000,-0.100000)"
fill="#000000" stroke="none">
<path d="M10100 18164 c-189 -49 -350 -206 -417 -404 -17 -53 -18 -178 -21
-3340 l-3 -3285 26 -608 c15 -334 25 -611 23 -616 -2 -5 -79 75 -173 177 -93
102 -227 247 -296 321 -69 75 -177 193 -240 262 -142 158 -346 381 -509 559
-69 75 -174 190 -234 258 -118 131 -165 169 -251 207 -77 35 -137 46 -230 46
-150 -1 -259 -45 -361 -146 -101 -99 -145 -211 -145 -367 0 -122 24 -207 82
-293 25 -38 365 -378 1319 -1321 228 -225 584 -577 790 -781 206 -205 402
-393 435 -419 110 -86 218 -124 349 -124 120 0 215 35 326 118 25 18 493 475
1040 1016 547 540 1105 1091 1240 1223 159 156 257 261 279 298 122 201 100
465 -52 631 -167 183 -466 221 -673 86 -67 -44 -107 -85 -434 -447 -129 -143
-273 -300 -320 -350 -47 -50 -119 -128 -160 -174 -41 -47 -136 -150 -210 -231
-138 -149 -377 -410 -462 -503 l-47 -52 -1 63 c0 35 11 300 25 590 l25 527 -2
3310 -3 3310 -27 75 c-89 244 -309 401 -558 399 -41 0 -100 -7 -130 -15z"/>
<path d="M6710 13779 c-266 -22 -545 -81 -740 -158 -417 -166 -734 -452 -1330
-1206 -113 -142 -275 -347 -360 -454 -159 -201 -271 -341 -610 -771 -106 -135
-244 -308 -305 -385 -61 -77 -179 -225 -261 -330 -83 -104 -227 -287 -320
-405 -94 -118 -235 -298 -315 -399 -79 -101 -206 -262 -281 -358 -249 -315
-334 -471 -403 -738 -74 -288 -70 -114 -70 -2930 l0 -2520 23 -165 c42 -305
111 -555 215 -772 132 -279 328 -510 565 -669 95 -64 285 -164 397 -210 190
-78 492 -138 800 -159 113 -8 2052 -10 6635 -8 l6475 4 153 22 c329 48 550
113 783 233 341 175 582 421 750 764 134 276 207 563 239 950 8 91 10 874 8
2625 -4 2299 -5 2504 -21 2607 -59 387 -152 590 -436 948 -70 88 -203 257
-296 375 -93 118 -228 290 -299 381 -72 91 -210 266 -306 389 -96 123 -238
303 -315 400 -77 97 -212 268 -300 380 -358 454 -473 601 -565 715 -53 66
-136 172 -185 235 -107 139 -426 537 -452 565 -10 11 -82 93 -160 181 -150
171 -290 306 -438 425 -330 265 -708 398 -1245 439 -75 5 -456 10 -852 10
l-718 0 0 -519 0 -520 743 -4 c694 -4 749 -5 849 -25 224 -42 402 -116 578
-241 189 -134 255 -208 771 -876 346 -447 437 -565 548 -705 64 -80 165 -210
226 -290 204 -267 389 -505 395 -510 6 -5 252 -322 453 -585 55 -71 151 -195
213 -275 393 -502 467 -601 495 -657 28 -55 31 -70 27 -128 -6 -91 -54 -149
-147 -175 -24 -6 -874 -10 -2481 -10 -2687 0 -2503 4 -2632 -61 -77 -39 -163
-125 -205 -204 -55 -104 -72 -189 -83 -400 -12 -249 -43 -411 -114 -595 -173
-446 -467 -774 -871 -970 -243 -118 -406 -154 -695 -155 -164 0 -213 4 -310
23 -353 71 -685 265 -916 534 -120 141 -192 251 -269 412 -121 249 -172 457
-185 751 -9 202 -23 274 -77 383 -59 119 -155 204 -290 255 l-58 22 -2490 5
-2490 5 -41 22 c-87 47 -125 127 -104 220 13 59 45 107 245 365 72 92 202 260
290 374 302 391 480 622 575 744 180 232 330 426 480 620 83 107 259 335 393
507 133 171 316 407 407 525 375 486 448 577 536 663 226 223 475 351 799 413
65 12 216 15 823 19 l742 4 0 520 0 519 -742 -1 c-409 -1 -790 -6 -848 -10z
m755 -6636 c98 -715 490 -1388 1047 -1801 387 -287 767 -445 1283 -534 115
-19 166 -22 435 -22 274 -1 319 1 445 22 623 104 1142 360 1545 762 185 184
290 318 425 540 176 290 308 659 358 1001 l11 79 2293 0 2293 0 0 -1904 c0
-1626 -2 -1922 -15 -2018 -36 -278 -122 -475 -278 -635 -152 -157 -333 -244
-589 -285 -123 -19 -12843 -19 -12966 0 -246 39 -409 115 -565 262 -156 146
-242 323 -295 605 -15 82 -17 260 -19 2020 -2 1061 -1 1935 1 1942 4 11 428
13 2295 13 l2290 0 6 -47z"/>
</g>
</svg>
