<?xml version="1.0" standalone="no"?>
<!DOCTYPE svg PUBLIC "-//W3C//DTD SVG 20010904//EN"
 "http://www.w3.org/TR/2001/REC-SVG-20010904/DTD/svg10.dtd">
<svg version="1.0" xmlns="http://www.w3.org/2000/svg"
 width="2048.000000pt" height="1935.000000pt" viewBox="0 0 2048.000000 1935.000000"
 preserveAspectRatio="xMidYMid meet">
<metadata>
Created by potrace 1.16, written by Peter Selinger 2001-2019
</metadata>
<g transform="translate(0.000000,1935.000000) scale(0.100000,-0.100000)"
fill="#000000" stroke="none">
<path d="M10094 18161 c-128 -37 -170 -69 -504 -391 -146 -141 -389 -375 -540
-520 -603 -579 -1607 -1550 -1646 -1591 -93 -98 -135 -205 -135 -338 0 -47 5
-108 11 -136 27 -118 112 -239 217 -305 162 -103 412 -100 578 8 58 37 127
109 829 862 517 554 801 851 804 842 1 -5 -8 -262 -23 -571 l-25 -561 0 -3302
c0 -3652 -5 -3373 65 -3515 64 -129 202 -242 352 -289 184 -56 404 -3 555 135
76 70 120 135 157 229 l26 67 3 3330 3 3330 -26 540 c-15 298 -25 557 -23 576
3 35 4 34 303 -284 165 -175 378 -403 474 -505 882 -946 835 -901 966 -941
147 -46 278 -36 411 29 254 124 354 421 228 677 -44 92 -40 87 -884 899 -371
357 -846 813 -1054 1014 -685 658 -650 627 -743 674 -114 57 -259 71 -379 37z"/>
<path d="M6740 13469 c-370 -25 -675 -100 -930 -230 -206 -105 -351 -212 -554
-409 -215 -209 -363 -380 -821 -944 -425 -525 -780 -962 -1020 -1258 -127
-155 -393 -483 -591 -728 -854 -1056 -839 -1036 -927 -1208 -81 -158 -130
-326 -164 -562 -17 -117 -18 -276 -18 -2575 0 -1980 3 -2472 13 -2565 66 -567
239 -975 544 -1279 298 -299 692 -470 1258 -548 117 -16 550 -17 6595 -21
4550 -2 6519 0 6635 8 740 48 1267 292 1599 739 198 268 319 598 378 1031 17
128 18 271 18 2625 0 2630 1 2549 -45 2773 -40 193 -118 376 -230 542 -51 75
-899 1132 -1564 1950 -128 157 -326 402 -441 544 -807 998 -827 1023 -1011
1226 -536 592 -899 793 -1584 877 -99 12 -289 16 -917 20 l-793 5 0 -511 0
-511 699 0 c564 0 722 -3 814 -15 366 -48 646 -189 902 -456 50 -52 209 -244
355 -428 146 -184 346 -435 445 -559 201 -251 724 -908 1241 -1558 187 -236
446 -562 576 -725 147 -186 242 -314 253 -342 24 -62 17 -152 -14 -195 -12
-18 -41 -42 -64 -55 l-42 -22 -2495 -5 -2495 -5 -59 -22 c-138 -52 -224 -127
-289 -250 -53 -102 -68 -174 -77 -378 -13 -291 -65 -494 -190 -741 -156 -310
-381 -550 -682 -727 -167 -99 -335 -157 -553 -193 -147 -24 -397 -22 -549 5
-345 61 -661 236 -911 504 -121 130 -204 250 -285 412 -124 248 -176 450 -190
745 -10 202 -18 246 -71 355 -60 127 -163 218 -299 267 l-65 23 -2490 5 -2490
5 -42 22 c-99 53 -126 156 -70 268 11 22 119 165 241 319 122 153 382 482 579
730 197 248 482 607 633 798 151 192 327 412 390 490 63 79 215 269 337 423
121 154 309 390 416 525 285 360 429 493 663 615 164 85 325 132 533 155 52 6
386 10 783 10 l692 0 0 510 0 510 -717 -1 c-395 -1 -774 -6 -843 -10z m725
-6476 c26 -186 97 -446 170 -625 275 -671 786 -1180 1470 -1463 205 -86 436
-149 680 -187 191 -30 683 -33 870 -5 359 54 637 143 950 306 593 308 1042
819 1272 1451 44 121 108 370 124 483 l12 87 2294 0 2293 0 -3 -1912 -3 -1913
-21 -93 c-73 -313 -196 -507 -412 -647 -111 -72 -227 -116 -401 -152 -80 -16
-428 -17 -6435 -21 -4513 -2 -6387 0 -6477 8 -426 36 -712 216 -863 543 -37
81 -68 185 -93 311 -14 71 -16 309 -19 1979 l-4 1897 2295 0 2295 0 6 -47z"/>
</g>
</svg>
