<?xml version="1.0" standalone="no"?>
<!DOCTYPE svg PUBLIC "-//W3C//DTD SVG 20010904//EN"
 "http://www.w3.org/TR/2001/REC-SVG-20010904/DTD/svg10.dtd">
<svg version="1.0" xmlns="http://www.w3.org/2000/svg"
 width="2048.000000pt" height="2048.000000pt" viewBox="0 0 2048.000000 2048.000000"
 preserveAspectRatio="xMidYMid meet">
<metadata>
Created by potrace 1.16, written by Peter Selinger 2001-2019
</metadata>
<g transform="translate(0.000000,2048.000000) scale(0.100000,-0.100000)"
fill="#000000" stroke="none">
<path d="M9760 19089 c-1183 -66 -2325 -359 -3375 -868 -229 -112 -451 -230
-616 -328 -72 -43 -138 -83 -148 -88 -226 -129 -757 -510 -1038 -746 -431
-361 -826 -757 -1178 -1179 -252 -303 -582 -763 -740 -1032 -5 -9 -44 -74 -86
-145 -325 -546 -614 -1200 -809 -1829 -842 -2724 -339 -5667 1353 -7920 286
-380 510 -639 851 -980 807 -807 1680 -1406 2711 -1861 1997 -882 4315 -982
6395 -276 603 204 1220 493 1765 826 1131 691 2160 1699 2860 2802 48 77 103
163 120 190 191 300 478 875 648 1300 810 2027 837 4314 75 6370 -443 1194
-1132 2261 -2057 3185 -834 832 -1798 1479 -2866 1920 -942 389 -1910 605
-2950 660 -218 11 -701 11 -915 -1z m585 -3420 c234 -33 488 -167 653 -343
366 -392 425 -1004 140 -1464 -67 -108 -236 -283 -336 -347 -465 -298 -1054
-247 -1446 125 -239 227 -366 525 -366 860 0 329 116 617 340 841 267 268 627
384 1015 328z m395 -3861 c114 -40 168 -74 250 -157 101 -102 152 -203 197
-396 16 -64 17 -273 20 -2422 l3 -2353 593 0 c666 0 674 -1 816 -71 146 -72
259 -198 319 -357 23 -59 26 -82 26 -202 1 -113 -3 -146 -21 -205 -62 -194
-212 -343 -418 -413 l-80 -27 -1900 -3 c-1376 -2 -1922 0 -1980 8 -191 27
-364 138 -466 298 -44 70 -80 192 -86 298 -15 240 99 455 310 582 31 18 88 45
129 60 l73 27 625 5 625 5 0 2040 0 2040 -555 5 -555 5 -73 27 c-106 38 -175
83 -252 164 -115 121 -170 261 -171 435 -1 172 59 322 173 439 96 98 177 145
312 181 67 17 122 18 1041 16 l970 -2 75 -27z"/>
</g>
</svg>
