<?xml version="1.0" standalone="no"?>
<!DOCTYPE svg PUBLIC "-//W3C//DTD SVG 20010904//EN"
 "http://www.w3.org/TR/2001/REC-SVG-20010904/DTD/svg10.dtd">
<svg version="1.0" xmlns="http://www.w3.org/2000/svg"
 width="2048.000000pt" height="1617.000000pt" viewBox="0 0 2048.000000 1617.000000"
 preserveAspectRatio="xMidYMid meet">
<metadata>
Created by potrace 1.16, written by Peter Selinger 2001-2019
</metadata>
<g transform="translate(0.000000,1617.000000) scale(0.100000,-0.100000)"
fill="#000000" stroke="none">
<path d="M5165 15069 c-935 -74 -1871 -408 -2536 -906 -171 -127 -281 -223
-439 -382 -273 -275 -494 -580 -547 -756 -17 -57 -18 -287 -21 -5083 -2 -4449
0 -5031 13 -5088 33 -145 113 -247 239 -309 102 -51 196 -68 336 -62 183 7
292 51 450 182 705 584 1624 960 2609 1070 706 78 1395 9 2041 -205 459 -152
926 -401 1274 -680 115 -92 175 -134 182 -127 3 3 -10 32 -29 64 -103 171
-198 432 -246 671 -32 160 -44 288 -44 467 0 309 55 593 169 877 107 266 328
603 538 821 l66 69 0 3751 c0 4081 3 3829 -55 3935 -36 67 -161 238 -254 351
-100 121 -260 278 -421 410 -630 522 -1546 859 -2525 931 -164 12 -642 11
-800 -1z"/>
<path d="M13360 15069 c-399 -32 -852 -121 -1198 -235 -812 -269 -1424 -693
-1870 -1295 -102 -138 -140 -211 -152 -294 -12 -87 -14 -6815 -2 -6815 5 0 58
34 118 76 60 42 278 190 484 327 1116 746 1521 1050 1976 1483 192 183 220
224 253 365 29 123 40 247 51 604 18 572 49 842 135 1170 59 225 98 328 227
585 99 199 267 464 353 556 5 6 34 40 64 75 102 121 386 395 496 480 492 380
1046 608 1685 694 162 22 524 30 695 16 305 -26 639 -94 903 -186 71 -25 132
-45 136 -45 10 0 7 312 -4 371 -31 170 -259 489 -569 800 -306 306 -659 555
-1076 759 -518 253 -1075 415 -1695 491 -131 16 -240 21 -530 24 -201 2 -417
-1 -480 -6z"/>
<path d="M16200 11920 c-565 -54 -1039 -258 -1440 -622 -230 -207 -383 -405
-528 -678 -77 -145 -122 -262 -166 -431 -66 -252 -90 -451 -106 -894 -17 -503
-27 -624 -61 -804 -38 -197 -103 -355 -217 -529 -89 -137 -360 -397 -742 -712
-214 -177 -770 -587 -1091 -805 -57 -38 -225 -153 -374 -254 -148 -101 -353
-240 -455 -309 -773 -525 -1109 -796 -1305 -1057 -127 -168 -204 -316 -259
-496 -41 -136 -57 -251 -57 -409 0 -414 161 -775 493 -1109 420 -422 985 -596
1513 -466 184 45 323 109 505 230 154 102 242 191 488 490 73 88 426 581 755
1053 40 57 99 140 132 185 33 45 140 192 237 327 97 135 196 270 220 301 24
30 106 138 182 240 223 294 604 762 741 909 23 25 63 70 89 100 105 120 333
345 419 414 450 361 999 525 1762 526 210 0 477 42 684 106 447 139 804 397
1038 748 137 207 236 433 283 651 42 199 49 453 17 625 -12 60 -14 65 -37 62
-14 -1 -189 -45 -390 -97 -201 -52 -660 -171 -1020 -264 -401 -104 -657 -166
-661 -160 -17 28 -250 893 -255 950 -18 185 63 352 221 458 86 58 75 55 855
260 168 44 435 114 594 155 159 42 291 78 294 81 3 2 -10 35 -29 72 -108 214
-330 467 -564 643 -346 260 -745 426 -1178 491 -153 22 -448 32 -587 19z
m-5005 -7494 c224 -60 375 -253 375 -481 0 -175 -74 -310 -229 -418 -191 -132
-466 -104 -637 67 -203 203 -204 494 -4 697 103 105 206 148 355 148 50 1 113
-5 140 -13z"/>
<path d="M17660 6263 c-102 -23 -344 -63 -448 -73 -56 -5 -198 -12 -315 -15
-117 -4 -250 -10 -297 -16 -401 -46 -702 -202 -1129 -588 -277 -251 -711 -799
-1261 -1595 -8 -12 -48 -67 -87 -123 -40 -56 -73 -104 -73 -107 0 -6 18 -9
185 -31 729 -98 1476 -374 2060 -760 167 -110 281 -194 391 -285 162 -136 268
-180 454 -187 308 -13 519 123 570 367 8 40 10 500 8 1740 l-3 1685 -55 -12z"/>
</g>
</svg>
