<?xml version="1.0" standalone="no"?>
<!DOCTYPE svg PUBLIC "-//W3C//DTD SVG 20010904//EN"
 "http://www.w3.org/TR/2001/REC-SVG-20010904/DTD/svg10.dtd">
<svg version="1.0" xmlns="http://www.w3.org/2000/svg"
 width="2048.000000pt" height="1707.000000pt" viewBox="0 0 2048.000000 1707.000000"
 preserveAspectRatio="xMidYMid meet">
<metadata>
Created by potrace 1.16, written by Peter Selinger 2001-2019
</metadata>
<g transform="translate(0.000000,1707.000000) scale(0.100000,-0.100000)"
fill="#000000" stroke="none">
<path d="M10500 15914 c-555 -23 -1236 -84 -1685 -153 -823 -127 -1657 -325
-2260 -539 -533 -188 -818 -305 -1193 -488 -625 -304 -1058 -572 -1582 -974
-249 -192 -495 -412 -765 -684 -233 -235 -514 -580 -767 -941 -251 -359 -555
-969 -739 -1483 -488 -1364 -490 -3125 -3 -4462 210 -578 476 -1095 783 -1525
387 -540 767 -946 1295 -1383 262 -217 749 -552 1032 -710 495 -278 788 -419
1225 -591 786 -310 1391 -476 2393 -656 447 -81 1173 -151 1806 -175 980 -37
2008 36 2695 192 741 167 1231 344 1710 619 251 143 356 217 525 364 385 338
608 674 710 1071 143 555 32 1176 -302 1675 -88 132 -110 160 -378 484 -230
279 -231 280 -293 376 -76 116 -142 256 -168 354 -31 118 -31 278 -1 367 38
109 142 247 270 358 178 155 571 384 1089 635 287 139 772 398 1027 548 273
160 667 444 836 603 36 34 80 74 99 90 58 48 253 266 327 364 275 369 422 675
507 1060 46 204 58 315 64 566 22 929 -245 1751 -817 2519 -496 666 -1320
1282 -2260 1690 -481 208 -838 331 -1345 460 -618 158 -1170 255 -1800 315
-466 44 -660 52 -1315 55 -349 1 -673 1 -720 -1z m1410 -1274 c993 -62 1692
-179 2451 -409 864 -261 1547 -615 2079 -1077 243 -211 459 -452 603 -672 222
-339 358 -676 422 -1047 151 -863 -86 -1529 -725 -2040 -253 -203 -357 -274
-610 -415 -206 -116 -704 -368 -955 -484 -199 -92 -616 -307 -795 -409 -269
-152 -502 -327 -696 -521 -331 -332 -481 -741 -444 -1208 24 -296 106 -542
272 -818 91 -151 200 -289 538 -680 224 -259 363 -490 412 -686 44 -179 26
-395 -47 -560 -71 -159 -252 -367 -435 -496 -158 -113 -494 -273 -775 -372
-1040 -365 -2903 -446 -4604 -200 -421 60 -928 163 -1201 244 -36 10 -162 47
-280 81 -559 161 -1026 345 -1545 610 -115 58 -250 131 -300 161 -49 30 -112
67 -139 83 -121 73 -511 337 -597 405 -605 475 -1024 932 -1383 1510 -424 683
-662 1412 -742 2272 -20 213 -23 742 -5 943 69 784 278 1513 600 2100 254 463
544 864 860 1190 309 318 474 465 790 703 282 212 410 295 841 546 170 99 482
250 765 371 138 58 264 112 280 120 110 49 530 190 810 271 260 76 733 195
945 237 662 134 1460 226 2235 257 273 10 1150 5 1375 -10z"/>
<path d="M11070 13431 c-206 -30 -415 -115 -590 -239 -178 -126 -345 -351
-424 -570 -63 -175 -70 -223 -71 -427 0 -179 2 -196 29 -294 52 -189 119 -327
227 -471 106 -141 290 -289 455 -366 380 -178 843 -147 1179 79 276 186 449
429 532 746 34 133 43 373 19 516 -62 366 -289 690 -609 872 -171 97 -367 151
-566 158 -69 2 -151 0 -181 -4z"/>
<path d="M7360 12829 c-355 -33 -672 -175 -914 -409 -222 -214 -369 -459 -437
-727 -140 -552 17 -1100 433 -1514 217 -216 522 -363 848 -409 95 -13 333 -14
426 -1 534 76 990 424 1193 911 219 524 153 1109 -174 1545 -74 97 -234 254
-332 324 -296 211 -681 314 -1043 280z"/>
<path d="M14425 12484 c-253 -40 -491 -173 -651 -363 -76 -90 -164 -260 -196
-376 -18 -67 -22 -107 -22 -255 -1 -212 15 -286 99 -455 97 -194 260 -355 460
-455 162 -80 228 -95 435 -95 117 0 193 5 230 14 209 53 404 180 546 355 235
289 284 727 120 1071 -124 259 -378 469 -648 536 -82 20 -303 34 -373 23z"/>
<path d="M4698 9850 c-156 -19 -335 -77 -452 -147 -221 -133 -412 -338 -511
-548 -175 -375 -148 -834 70 -1175 196 -306 442 -479 805 -566 54 -13 116 -18
225 -18 130 0 164 3 255 26 312 80 526 218 706 458 164 217 248 475 247 760
-2 367 -157 704 -429 929 -268 222 -586 319 -916 281z"/>
<path d="M9750 8214 c-354 -47 -734 -206 -975 -406 -281 -234 -455 -447 -589
-722 -268 -547 -272 -1215 -10 -1764 128 -270 269 -457 504 -669 191 -173 416
-307 649 -387 451 -156 858 -162 1295 -20 310 101 533 236 775 470 147 142
221 230 307 367 205 325 307 658 321 1042 22 629 -237 1213 -722 1624 -117 99
-155 128 -240 181 -240 150 -540 253 -845 290 -115 14 -343 11 -470 -6z m415
-854 c296 -43 595 -197 748 -385 183 -225 267 -469 267 -776 0 -211 -43 -389
-137 -572 -115 -222 -288 -390 -523 -507 -323 -162 -722 -160 -1035 6 -342
181 -563 472 -636 839 -21 106 -18 388 5 495 59 272 197 499 395 650 223 169
474 255 751 258 52 1 127 -3 165 -8z"/>
</g>
</svg>
