<?xml version="1.0" standalone="no"?>
<!DOCTYPE svg PUBLIC "-//W3C//DTD SVG 20010904//EN"
 "http://www.w3.org/TR/2001/REC-SVG-20010904/DTD/svg10.dtd">
<svg version="1.0" xmlns="http://www.w3.org/2000/svg"
 width="2048.000000pt" height="1912.000000pt" viewBox="0 0 2048.000000 1912.000000"
 preserveAspectRatio="xMidYMid meet">
<metadata>
Created by potrace 1.16, written by Peter Selinger 2001-2019
</metadata>
<g transform="translate(0.000000,1912.000000) scale(0.100000,-0.100000)"
fill="#000000" stroke="none">
<path d="M4556 17729 c-604 -36 -1066 -167 -1466 -415 -129 -79 -228 -160
-360 -293 -163 -164 -263 -306 -371 -521 -155 -311 -234 -594 -286 -1025 -17
-143 -18 -415 -18 -5915 0 -6118 -2 -5816 45 -6133 32 -211 113 -511 170 -632
5 -11 27 -60 48 -110 81 -185 207 -384 333 -522 200 -220 363 -345 618 -473
365 -184 744 -277 1261 -310 126 -8 1767 -10 5830 -8 l5655 4 165 21 c330 44
652 121 805 193 11 5 45 19 75 30 97 38 266 129 392 212 96 64 155 113 269
227 151 151 219 235 306 381 60 101 133 246 158 315 10 28 22 55 25 60 12 18
78 218 99 300 48 191 82 415 101 654 14 187 14 11375 0 11562 -29 379 -105
739 -201 955 -10 22 -28 65 -39 95 -38 96 -120 246 -203 372 -65 99 -111 152
-241 283 -131 130 -184 176 -283 241 -373 246 -772 377 -1343 440 -145 16
-534 17 -5785 19 -3096 1 -5688 -2 -5759 -7z m11404 -1452 c299 -61 511 -168
677 -340 191 -199 284 -410 335 -762 11 -73 13 -1122 13 -5630 0 -5264 -1
-5546 -18 -5657 -35 -229 -106 -428 -210 -583 -59 -89 -220 -243 -307 -296
-190 -115 -395 -175 -675 -199 -166 -14 -10893 -14 -11071 0 -391 31 -644 131
-857 339 -190 185 -286 393 -345 746 -15 92 -17 525 -20 5550 -2 3911 0 5492
8 5599 23 304 74 496 184 690 59 102 203 262 300 331 162 114 393 196 636 224
42 5 2568 8 5670 7 5265 -2 5600 -3 5680 -19z"/>
<path d="M5337 14959 c-144 -19 -250 -71 -347 -169 -73 -74 -120 -158 -147
-266 -17 -63 -18 -137 -18 -929 0 -955 -2 -921 67 -1064 66 -136 221 -252 383
-286 103 -22 1726 -22 1829 0 215 45 371 197 426 411 19 74 20 114 20 939 0
825 -1 865 -20 939 -53 209 -201 356 -412 413 -56 15 -151 17 -888 19 -454 1
-855 -2 -893 -7z"/>
<path d="M9405 14960 c-244 -29 -413 -164 -492 -393 l-28 -82 0 -890 0 -890
24 -70 c65 -195 177 -312 356 -373 l80 -27 869 -3 c965 -3 953 -4 1091 62 108
50 184 127 240 240 75 152 74 137 74 1061 0 914 1 907 -70 1053 -73 151 -199
253 -370 299 -58 15 -143 17 -889 19 -454 1 -852 -2 -885 -6z"/>
<path d="M13444 14960 c-90 -12 -140 -28 -219 -67 -133 -68 -234 -199 -275
-359 -19 -74 -20 -113 -20 -938 0 -955 -2 -923 67 -1066 68 -142 212 -250 379
-285 103 -22 1726 -22 1829 0 162 34 317 150 383 286 69 143 67 109 67 1064 0
956 2 922 -68 1064 -43 88 -150 195 -239 238 -139 69 -105 67 -1018 69 -454 1
-853 -2 -886 -6z"/>
<path d="M5311 10909 c-135 -27 -248 -86 -333 -175 -59 -61 -100 -136 -130
-239 l-23 -80 0 -865 0 -865 23 -80 c34 -116 75 -186 153 -259 84 -80 190
-133 306 -153 125 -21 1746 -14 1818 8 163 51 303 163 362 289 64 135 63 122
63 1063 0 821 -1 857 -20 933 -52 204 -168 328 -375 401 l-80 28 -860 2 c-473
0 -880 -3 -904 -8z"/>
<path d="M9370 10910 c-121 -22 -245 -83 -320 -159 -64 -65 -101 -125 -138
-231 l-27 -75 0 -895 0 -895 28 -79 c56 -160 150 -266 295 -333 138 -64 136
-64 1078 -60 934 3 877 -1 1020 67 97 47 199 150 246 250 65 137 63 99 63
1050 0 957 3 914 -66 1056 -68 140 -170 226 -334 281 l-80 27 -860 2 c-473 1
-880 -2 -905 -6z"/>
<path d="M13415 10910 c-230 -47 -384 -174 -453 -375 l-27 -80 -3 -875 c-3
-967 -4 -953 61 -1090 59 -126 199 -238 362 -289 72 -22 1693 -29 1818 -8 116
20 222 73 306 153 78 73 119 143 153 259 l23 80 0 865 c0 794 -1 870 -18 930
-55 204 -183 340 -381 408 l-81 27 -860 2 c-473 0 -878 -2 -900 -7z"/>
<path d="M5270 6854 c-159 -34 -311 -150 -378 -287 -69 -144 -67 -107 -67
-1062 0 -792 1 -866 18 -929 55 -216 207 -368 425 -424 61 -15 144 -17 922
-17 788 0 860 1 920 18 225 61 366 200 420 413 19 74 20 114 20 939 0 825 -1
865 -20 939 -55 214 -211 366 -426 411 -100 21 -1736 21 -1834 -1z"/>
<path d="M9314 6850 c-90 -23 -133 -42 -189 -80 -98 -67 -163 -158 -212 -295
l-28 -80 0 -890 0 -890 28 -82 c70 -204 210 -332 414 -380 72 -17 141 -18 918
-18 781 0 846 1 920 18 215 50 346 172 427 397 l23 65 3 843 c3 958 4 950 -69
1099 -55 115 -137 199 -241 248 -139 66 -126 65 -1071 64 -796 0 -857 -1 -923
-19z"/>
<path d="M13372 6855 c-164 -36 -308 -145 -375 -285 -69 -143 -67 -111 -67
-1066 0 -825 1 -864 20 -938 54 -213 195 -352 420 -413 60 -17 132 -18 920
-18 787 0 861 1 924 18 216 55 368 207 423 423 17 63 18 137 18 929 0 783 -2
866 -17 927 -57 221 -217 378 -433 423 -100 21 -1736 21 -1833 0z"/>
</g>
</svg>
