<?xml version="1.0" standalone="no"?>
<!DOCTYPE svg PUBLIC "-//W3C//DTD SVG 20010904//EN"
 "http://www.w3.org/TR/2001/REC-SVG-20010904/DTD/svg10.dtd">
<svg version="1.0" xmlns="http://www.w3.org/2000/svg"
 width="2048.000000pt" height="2048.000000pt" viewBox="0 0 2048.000000 2048.000000"
 preserveAspectRatio="xMidYMid meet">
<metadata>
Created by potrace 1.16, written by Peter Selinger 2001-2019
</metadata>
<g transform="translate(0.000000,2048.000000) scale(0.100000,-0.100000)"
fill="#000000" stroke="none">
<path d="M9865 19094 c-665 -35 -1314 -137 -1934 -305 -226 -60 -541 -160
-541 -170 0 -7 161 -392 420 -1004 53 -126 107 -256 121 -288 19 -49 27 -58
44 -54 11 3 106 29 210 60 555 161 1012 240 1615 278 173 11 886 8 950 -4 14
-3 66 -8 115 -12 215 -15 567 -64 805 -112 165 -33 522 -123 688 -173 72 -22
136 -40 141 -40 4 0 54 114 111 253 57 138 181 443 276 676 96 234 173 425
171 427 -1 1 -90 29 -197 63 -670 209 -1328 335 -2040 391 -136 11 -824 21
-955 14z"/>
<path d="M14077 17988 c-114 -277 -469 -1141 -474 -1154 -2 -7 44 -37 104 -69
421 -224 920 -560 1285 -867 711 -597 1327 -1357 1752 -2160 37 -71 70 -128
73 -128 3 0 141 56 307 124 165 69 456 188 645 266 310 127 378 156 390 166 2
1 -41 85 -95 186 -334 627 -753 1221 -1263 1793 -160 180 -515 532 -701 697
-464 410 -957 769 -1465 1068 -119 70 -469 260 -478 260 -3 0 -39 -82 -80
-182z"/>
<path d="M6115 18068 c-771 -412 -1435 -899 -2063 -1513 -582 -568 -1074
-1197 -1494 -1910 -49 -83 -235 -430 -256 -476 -3 -7 99 -51 543 -234 143 -59
383 -159 533 -221 151 -63 276 -114 278 -114 2 0 24 41 49 90 61 122 216 389
313 543 462 723 1009 1325 1681 1847 336 261 672 480 1084 704 37 20 67 40 67
45 0 4 -47 120 -104 257 -57 137 -156 377 -221 534 -192 465 -221 534 -231
537 -5 1 -85 -39 -179 -89z"/>
<path d="M7535 13384 c-395 -64 -701 -342 -838 -759 -48 -146 -62 -244 -61
-435 0 -246 32 -396 129 -595 135 -280 359 -475 642 -562 79 -24 104 -26 243
-27 186 0 261 17 415 93 315 156 539 478 606 871 17 95 17 352 1 450 -54 329
-239 635 -484 801 -82 56 -207 113 -303 139 -79 21 -281 35 -350 24z"/>
<path d="M12653 13375 c-389 -70 -716 -396 -823 -820 -124 -490 4 -985 335
-1293 197 -184 428 -271 685 -259 181 9 329 57 482 160 331 220 523 634 505
1087 -9 215 -45 364 -135 548 -200 414 -633 653 -1049 577z"/>
<path d="M1836 13061 c-13 -22 -127 -414 -176 -606 -157 -608 -244 -1170 -280
-1800 -12 -217 -4 -827 15 -1055 47 -590 141 -1125 294 -1685 65 -234 153
-505 166 -505 12 0 1333 555 1342 564 4 3 -8 54 -26 114 -50 163 -146 548
-180 722 -90 465 -131 910 -131 1430 0 744 86 1355 292 2073 28 100 47 182 42
186 -5 4 -70 33 -144 63 -115 47 -434 181 -1068 446 -78 33 -144 57 -146 53z"/>
<path d="M17940 12790 c-360 -153 -659 -280 -664 -282 -6 -3 11 -74 37 -159
162 -532 260 -1077 296 -1644 12 -193 13 -716 1 -910 -19 -315 -59 -645 -115
-952 -30 -165 -129 -571 -179 -735 -20 -65 -36 -124 -36 -131 0 -8 258 -123
664 -295 365 -155 668 -282 673 -282 5 0 35 80 66 178 203 637 334 1311 393
2017 22 264 26 977 6 1220 -62 762 -187 1412 -399 2078 -43 133 -60 177 -72
176 -9 -1 -311 -126 -671 -279z"/>
<path d="M7349 7887 c-116 -44 -172 -151 -150 -289 37 -228 193 -473 477 -748
521 -504 1308 -856 2114 -945 387 -42 809 -26 1180 46 206 40 541 139 735 217
658 265 1246 741 1466 1186 61 124 93 247 86 326 -12 141 -115 228 -259 218
-58 -3 -91 -18 -408 -175 -365 -182 -506 -242 -765 -330 -484 -163 -955 -240
-1520 -248 -492 -6 -882 35 -1304 140 -395 98 -667 203 -1131 438 -332 168
-336 169 -410 173 -48 3 -88 -1 -111 -9z"/>
<path d="M3195 6674 c-247 -102 -544 -224 -660 -271 -115 -47 -214 -89 -218
-93 -5 -4 31 -81 79 -171 337 -634 729 -1199 1233 -1774 141 -162 615 -634
777 -776 564 -492 1113 -872 1723 -1193 90 -47 165 -86 167 -86 5 0 10 13 166
395 72 176 189 461 259 634 71 173 129 318 129 322 0 5 -28 23 -62 40 -372
188 -956 576 -1303 867 -319 268 -669 618 -936 937 -281 335 -615 834 -830
1241 -34 63 -64 114 -67 114 -4 0 -209 -84 -457 -186z"/>
<path d="M16746 6719 c-644 -1183 -1534 -2112 -2691 -2807 -110 -66 -258 -150
-328 -187 -72 -38 -126 -72 -124 -79 3 -6 80 -195 172 -421 362 -886 375 -917
380 -923 7 -8 487 256 643 354 649 405 1160 810 1678 1328 340 341 568 602
828 951 70 94 134 178 141 187 27 33 257 381 313 472 202 332 401 702 386 715
-10 9 -41 22 -806 340 -279 116 -509 211 -511 211 -3 0 -39 -63 -81 -141z"/>
<path d="M7930 3143 c-25 -62 -100 -243 -364 -879 -91 -220 -166 -405 -166
-411 0 -25 582 -191 972 -277 1377 -305 2790 -268 4177 109 220 60 493 143
502 153 4 4 -57 161 -136 349 -78 188 -170 408 -203 490 -172 419 -210 507
-221 511 -6 2 -73 -15 -148 -37 -545 -159 -1079 -253 -1648 -290 -165 -11
-751 -11 -915 0 -584 37 -1105 129 -1641 289 -92 28 -171 50 -176 50 -5 0 -20
-26 -33 -57z"/>
</g>
</svg>
