<?xml version="1.0" standalone="no"?>
<!DOCTYPE svg PUBLIC "-//W3C//DTD SVG 20010904//EN"
 "http://www.w3.org/TR/2001/REC-SVG-20010904/DTD/svg10.dtd">
<svg version="1.0" xmlns="http://www.w3.org/2000/svg"
 width="2048.000000pt" height="1912.000000pt" viewBox="0 0 2048.000000 1912.000000"
 preserveAspectRatio="xMidYMid meet">
<metadata>
Created by potrace 1.16, written by Peter Selinger 2001-2019
</metadata>
<g transform="translate(0.000000,1912.000000) scale(0.100000,-0.100000)"
fill="#000000" stroke="none">
<path d="M4635 17733 c-580 -30 -986 -125 -1376 -324 -157 -80 -304 -179 -424
-286 -211 -188 -350 -370 -476 -623 -155 -312 -235 -599 -286 -1030 -17 -149
-18 -395 -18 -5920 0 -5436 1 -5774 18 -5917 39 -336 110 -639 197 -838 163
-372 275 -540 513 -768 192 -184 404 -314 717 -440 280 -112 604 -178 1010
-207 198 -13 11237 -14 11445 0 271 18 497 53 725 110 103 26 252 75 305 100
11 5 45 19 75 30 91 35 278 137 400 218 87 57 151 112 261 222 151 150 219
234 306 380 60 101 133 246 158 315 10 28 22 55 25 60 4 6 26 64 48 130 62
186 106 394 139 670 17 143 18 416 18 5935 0 5519 -1 5792 -18 5935 -65 536
-189 903 -430 1268 -112 170 -350 409 -517 519 -379 251 -777 382 -1350 445
-145 16 -533 17 -5780 18 -3094 1 -5652 0 -5685 -2z m11325 -1456 c299 -61
511 -168 677 -340 182 -189 275 -391 330 -717 17 -100 18 -385 21 -5570 2
-3892 0 -5508 -8 -5615 -22 -304 -93 -536 -223 -730 -59 -89 -220 -243 -307
-296 -190 -115 -395 -175 -675 -199 -166 -14 -10914 -14 -11080 0 -289 25
-509 90 -687 205 -87 57 -223 187 -283 270 -85 119 -164 311 -199 480 -43 208
-41 -7 -41 5795 0 5244 1 5531 18 5642 50 329 142 538 317 721 52 55 122 119
155 142 161 114 392 196 635 224 42 5 2568 8 5670 7 5265 -2 5600 -3 5680 -19z"/>
<path d="M8220 14384 c-491 -59 -813 -194 -1088 -459 -302 -290 -462 -644
-539 -1186 -13 -93 -17 -267 -23 -949 -9 -984 -10 -996 -107 -1183 -80 -152
-180 -216 -475 -303 -165 -48 -263 -101 -352 -190 -116 -116 -190 -261 -216
-427 -15 -94 -8 -267 15 -352 24 -87 87 -214 141 -281 108 -135 220 -203 444
-269 218 -64 325 -127 404 -238 65 -91 96 -174 123 -322 13 -75 17 -229 23
-920 7 -893 9 -929 65 -1195 89 -421 277 -757 556 -996 301 -258 709 -393
1234 -409 69 -2 164 3 224 11 341 46 543 180 628 417 23 62 26 88 26 192 0
107 -3 128 -28 195 -71 191 -217 319 -425 371 -19 5 -116 13 -215 19 -208 11
-303 31 -415 87 -174 88 -274 245 -326 513 -14 73 -18 204 -24 940 -7 923 -7
913 -65 1128 -62 231 -202 470 -372 633 -129 125 -310 246 -466 310 l-78 32
88 37 c281 119 513 316 665 565 92 150 129 234 168 382 52 199 53 201 60 1113
6 707 10 868 23 930 43 212 101 340 197 428 133 124 261 166 550 182 191 11
250 21 339 61 215 97 344 318 327 559 -18 270 -197 464 -503 546 -90 25 -116
27 -323 29 -124 2 -241 1 -260 -1z"/>
<path d="M11782 14375 c-106 -19 -208 -52 -287 -93 -93 -48 -208 -163 -252
-252 -140 -287 -34 -617 244 -763 95 -50 173 -66 376 -77 279 -15 420 -64 547
-189 77 -76 125 -164 164 -302 47 -166 49 -190 56 -1084 4 -467 10 -859 13
-870 3 -11 16 -69 27 -129 27 -134 57 -220 124 -351 122 -239 267 -400 495
-554 53 -36 184 -103 291 -149 l25 -10 -33 -12 c-62 -23 -206 -97 -274 -141
-346 -228 -556 -548 -645 -986 -13 -65 -17 -216 -23 -933 -6 -727 -9 -869 -23
-946 -43 -238 -115 -381 -239 -477 -121 -94 -257 -134 -503 -147 -238 -12
-309 -31 -437 -117 -116 -76 -192 -187 -228 -331 -68 -268 52 -523 305 -650
143 -73 401 -119 600 -107 558 32 947 173 1241 449 330 309 498 686 564 1269
18 155 20 243 20 877 0 388 5 757 10 820 20 226 78 380 185 486 84 85 183 133
410 200 136 40 239 96 315 173 169 171 238 357 227 610 -3 69 -13 153 -22 186
-24 90 -89 213 -148 286 -100 121 -208 186 -395 240 -233 67 -348 127 -423
221 -84 106 -130 246 -149 448 -6 66 -10 414 -10 820 0 770 -6 887 -64 1172
-187 924 -840 1432 -1831 1427 -101 0 -212 -7 -253 -14z"/>
</g>
</svg>
